<mxfile host="app.diagrams.net" modified="2021-09-22T02:17:54.480Z" agent="5.0 (Windows NT 10.0; Win64; x64) AppleWebKit/537.36 (KHTML, like Gecko) Chrome/93.0.4577.82 Safari/537.36" etag="yvN0Rzd_MnHqf-ZfL0FQ" version="15.2.9" type="github">
  <diagram id="f8S4uAUe_257wGlPpIRw" name="Page-1">
    <mxGraphModel dx="2211" dy="1898" grid="1" gridSize="10" guides="1" tooltips="1" connect="1" arrows="1" fold="1" page="1" pageScale="1" pageWidth="827" pageHeight="1169" math="0" shadow="0">
      <root>
        <mxCell id="0" />
        <mxCell id="1" parent="0" />
        <mxCell id="EmusEBOhWH430v7L6ggN-1" value="Agenda" style="shape=ext;margin=3;double=1;whiteSpace=wrap;html=1;align=center;" parent="1" vertex="1">
          <mxGeometry x="310" y="250" width="120" height="60" as="geometry" />
        </mxCell>
        <mxCell id="EmusEBOhWH430v7L6ggN-6" value="" style="rounded=0;orthogonalLoop=1;jettySize=auto;html=1;endArrow=none;endFill=0;" parent="1" source="EmusEBOhWH430v7L6ggN-2" target="EmusEBOhWH430v7L6ggN-1" edge="1">
          <mxGeometry relative="1" as="geometry" />
        </mxCell>
        <mxCell id="EmusEBOhWH430v7L6ggN-2" value="data" style="ellipse;shape=doubleEllipse;margin=3;whiteSpace=wrap;html=1;align=center;" parent="1" vertex="1">
          <mxGeometry x="330" y="150" width="100" height="40" as="geometry" />
        </mxCell>
        <mxCell id="EmusEBOhWH430v7L6ggN-8" style="rounded=0;orthogonalLoop=1;jettySize=auto;html=1;entryX=0.893;entryY=-0.01;entryDx=0;entryDy=0;entryPerimeter=0;endArrow=none;endFill=0;" parent="1" source="EmusEBOhWH430v7L6ggN-3" target="EmusEBOhWH430v7L6ggN-1" edge="1">
          <mxGeometry relative="1" as="geometry" />
        </mxCell>
        <mxCell id="EmusEBOhWH430v7L6ggN-3" value="hora_ini" style="ellipse;shape=doubleEllipse;margin=3;whiteSpace=wrap;html=1;align=center;" parent="1" vertex="1">
          <mxGeometry x="440" y="150" width="100" height="40" as="geometry" />
        </mxCell>
        <mxCell id="EmusEBOhWH430v7L6ggN-9" style="rounded=0;orthogonalLoop=1;jettySize=auto;html=1;entryX=1;entryY=0.25;entryDx=0;entryDy=0;endArrow=none;endFill=0;" parent="1" source="EmusEBOhWH430v7L6ggN-4" target="EmusEBOhWH430v7L6ggN-1" edge="1">
          <mxGeometry relative="1" as="geometry" />
        </mxCell>
        <mxCell id="EmusEBOhWH430v7L6ggN-4" value="hora_fim" style="ellipse;shape=doubleEllipse;margin=3;whiteSpace=wrap;html=1;align=center;" parent="1" vertex="1">
          <mxGeometry x="470" y="220" width="100" height="40" as="geometry" />
        </mxCell>
        <mxCell id="EmusEBOhWH430v7L6ggN-10" style="rounded=0;orthogonalLoop=1;jettySize=auto;html=1;endArrow=none;endFill=0;" parent="1" source="EmusEBOhWH430v7L6ggN-5" target="EmusEBOhWH430v7L6ggN-1" edge="1">
          <mxGeometry relative="1" as="geometry" />
        </mxCell>
        <mxCell id="EmusEBOhWH430v7L6ggN-5" value="id_professor" style="ellipse;whiteSpace=wrap;html=1;align=center;" parent="1" vertex="1">
          <mxGeometry x="470" y="270" width="100" height="40" as="geometry" />
        </mxCell>
        <mxCell id="EmusEBOhWH430v7L6ggN-16" value="" style="edgeStyle=orthogonalEdgeStyle;rounded=0;orthogonalLoop=1;jettySize=auto;html=1;endArrow=none;endFill=0;" parent="1" source="EmusEBOhWH430v7L6ggN-12" target="EmusEBOhWH430v7L6ggN-15" edge="1">
          <mxGeometry relative="1" as="geometry">
            <Array as="points">
              <mxPoint x="150" y="60" />
            </Array>
          </mxGeometry>
        </mxCell>
        <mxCell id="qGBWfhwedNhxClX9icXL-1" style="edgeStyle=orthogonalEdgeStyle;rounded=0;orthogonalLoop=1;jettySize=auto;html=1;exitX=0.5;exitY=1;exitDx=0;exitDy=0;endArrow=none;endFill=0;" edge="1" parent="1" source="EmusEBOhWH430v7L6ggN-12" target="qGBWfhwedNhxClX9icXL-2">
          <mxGeometry relative="1" as="geometry">
            <mxPoint x="-340" y="360" as="targetPoint" />
            <Array as="points">
              <mxPoint x="110" y="80" />
            </Array>
          </mxGeometry>
        </mxCell>
        <mxCell id="EmusEBOhWH430v7L6ggN-12" value="PROFESSOR" style="rounded=1;arcSize=10;whiteSpace=wrap;html=1;align=center;" parent="1" vertex="1">
          <mxGeometry x="30" y="40" width="100" height="40" as="geometry" />
        </mxCell>
        <mxCell id="EmusEBOhWH430v7L6ggN-17" style="edgeStyle=orthogonalEdgeStyle;rounded=0;orthogonalLoop=1;jettySize=auto;html=1;entryX=0;entryY=0.5;entryDx=0;entryDy=0;endArrow=none;endFill=0;" parent="1" source="EmusEBOhWH430v7L6ggN-15" target="EmusEBOhWH430v7L6ggN-1" edge="1">
          <mxGeometry relative="1" as="geometry" />
        </mxCell>
        <mxCell id="EmusEBOhWH430v7L6ggN-15" value="Escalado" style="shape=rhombus;double=1;perimeter=rhombusPerimeter;whiteSpace=wrap;html=1;align=center;" parent="1" vertex="1">
          <mxGeometry x="210" y="80" width="120" height="60" as="geometry" />
        </mxCell>
        <mxCell id="EmusEBOhWH430v7L6ggN-19" style="rounded=0;orthogonalLoop=1;jettySize=auto;html=1;endArrow=none;endFill=0;entryX=0;entryY=0.75;entryDx=0;entryDy=0;" parent="1" source="EmusEBOhWH430v7L6ggN-18" target="EmusEBOhWH430v7L6ggN-12" edge="1">
          <mxGeometry relative="1" as="geometry">
            <mxPoint x="70" y="80" as="targetPoint" />
          </mxGeometry>
        </mxCell>
        <mxCell id="EmusEBOhWH430v7L6ggN-18" value="id_professor" style="ellipse;whiteSpace=wrap;html=1;align=center;fontStyle=4;" parent="1" vertex="1">
          <mxGeometry x="-170" y="150" width="100" height="40" as="geometry" />
        </mxCell>
        <mxCell id="EmusEBOhWH430v7L6ggN-33" style="rounded=0;orthogonalLoop=1;jettySize=auto;html=1;entryX=0.077;entryY=-0.002;entryDx=0;entryDy=0;entryPerimeter=0;endArrow=none;endFill=0;" parent="1" source="EmusEBOhWH430v7L6ggN-21" target="EmusEBOhWH430v7L6ggN-12" edge="1">
          <mxGeometry relative="1" as="geometry" />
        </mxCell>
        <mxCell id="EmusEBOhWH430v7L6ggN-21" value="cpf" style="ellipse;whiteSpace=wrap;html=1;align=center;fontStyle=4" parent="1" vertex="1">
          <mxGeometry x="-80" y="-50" width="100" height="40" as="geometry" />
        </mxCell>
        <mxCell id="EmusEBOhWH430v7L6ggN-32" style="rounded=0;orthogonalLoop=1;jettySize=auto;html=1;entryX=0;entryY=0.25;entryDx=0;entryDy=0;endArrow=none;endFill=0;" parent="1" source="EmusEBOhWH430v7L6ggN-22" target="EmusEBOhWH430v7L6ggN-12" edge="1">
          <mxGeometry relative="1" as="geometry" />
        </mxCell>
        <mxCell id="EmusEBOhWH430v7L6ggN-22" value="nome" style="ellipse;whiteSpace=wrap;html=1;align=center;" parent="1" vertex="1">
          <mxGeometry x="-180" y="-30" width="100" height="40" as="geometry" />
        </mxCell>
        <mxCell id="EmusEBOhWH430v7L6ggN-23" style="edgeStyle=orthogonalEdgeStyle;rounded=0;orthogonalLoop=1;jettySize=auto;html=1;exitX=0.5;exitY=1;exitDx=0;exitDy=0;" parent="1" source="EmusEBOhWH430v7L6ggN-21" target="EmusEBOhWH430v7L6ggN-21" edge="1">
          <mxGeometry relative="1" as="geometry" />
        </mxCell>
        <mxCell id="EmusEBOhWH430v7L6ggN-30" style="rounded=0;orthogonalLoop=1;jettySize=auto;html=1;entryX=0;entryY=0.25;entryDx=0;entryDy=0;endArrow=none;endFill=0;" parent="1" source="EmusEBOhWH430v7L6ggN-24" target="EmusEBOhWH430v7L6ggN-12" edge="1">
          <mxGeometry relative="1" as="geometry" />
        </mxCell>
        <mxCell id="EmusEBOhWH430v7L6ggN-24" value="telefone" style="ellipse;shape=doubleEllipse;margin=3;whiteSpace=wrap;html=1;align=center;" parent="1" vertex="1">
          <mxGeometry x="-210" y="10" width="100" height="40" as="geometry" />
        </mxCell>
        <mxCell id="EmusEBOhWH430v7L6ggN-29" style="rounded=0;orthogonalLoop=1;jettySize=auto;html=1;entryX=0;entryY=0.5;entryDx=0;entryDy=0;endArrow=none;endFill=0;" parent="1" source="EmusEBOhWH430v7L6ggN-25" target="EmusEBOhWH430v7L6ggN-12" edge="1">
          <mxGeometry relative="1" as="geometry" />
        </mxCell>
        <mxCell id="EmusEBOhWH430v7L6ggN-25" value="endereÃ§o" style="ellipse;whiteSpace=wrap;html=1;align=center;" parent="1" vertex="1">
          <mxGeometry x="-230" y="60" width="100" height="40" as="geometry" />
        </mxCell>
        <mxCell id="EmusEBOhWH430v7L6ggN-34" style="rounded=0;orthogonalLoop=1;jettySize=auto;html=1;endArrow=none;endFill=0;exitX=0.662;exitY=0.043;exitDx=0;exitDy=0;exitPerimeter=0;entryX=0;entryY=1;entryDx=0;entryDy=0;" parent="1" source="EmusEBOhWH430v7L6ggN-26" target="EmusEBOhWH430v7L6ggN-12" edge="1">
          <mxGeometry relative="1" as="geometry">
            <mxPoint x="113" y="80" as="targetPoint" />
          </mxGeometry>
        </mxCell>
        <mxCell id="EmusEBOhWH430v7L6ggN-26" value="cref" style="ellipse;whiteSpace=wrap;html=1;align=center;fontStyle=4" parent="1" vertex="1">
          <mxGeometry x="-120" y="190" width="100" height="40" as="geometry" />
        </mxCell>
        <mxCell id="EmusEBOhWH430v7L6ggN-28" style="rounded=0;orthogonalLoop=1;jettySize=auto;html=1;entryX=0;entryY=0.75;entryDx=0;entryDy=0;endArrow=none;endFill=0;" parent="1" source="EmusEBOhWH430v7L6ggN-27" target="EmusEBOhWH430v7L6ggN-12" edge="1">
          <mxGeometry relative="1" as="geometry" />
        </mxCell>
        <mxCell id="EmusEBOhWH430v7L6ggN-27" value="especializacao" style="ellipse;shape=doubleEllipse;margin=3;whiteSpace=wrap;html=1;align=center;" parent="1" vertex="1">
          <mxGeometry x="-210" y="110" width="100" height="40" as="geometry" />
        </mxCell>
        <mxCell id="EmusEBOhWH430v7L6ggN-35" value="0,n" style="text;strokeColor=none;fillColor=none;spacingLeft=4;spacingRight=4;overflow=hidden;rotatable=0;points=[[0,0.5],[1,0.5]];portConstraint=eastwest;fontSize=12;" parent="1" vertex="1">
          <mxGeometry x="270" y="250" width="40" height="30" as="geometry" />
        </mxCell>
        <mxCell id="EmusEBOhWH430v7L6ggN-36" value="1,n" style="text;strokeColor=none;fillColor=none;spacingLeft=4;spacingRight=4;overflow=hidden;rotatable=0;points=[[0,0.5],[1,0.5]];portConstraint=eastwest;fontSize=12;" parent="1" vertex="1">
          <mxGeometry x="160" y="90" width="40" height="30" as="geometry" />
        </mxCell>
        <mxCell id="qGBWfhwedNhxClX9icXL-4" style="edgeStyle=orthogonalEdgeStyle;rounded=0;orthogonalLoop=1;jettySize=auto;html=1;entryX=0.5;entryY=1;entryDx=0;entryDy=0;endArrow=none;endFill=0;exitX=0.5;exitY=0;exitDx=0;exitDy=0;" edge="1" parent="1" source="qGBWfhwedNhxClX9icXL-2" target="qGBWfhwedNhxClX9icXL-3">
          <mxGeometry relative="1" as="geometry">
            <mxPoint x="20" y="-150" as="sourcePoint" />
          </mxGeometry>
        </mxCell>
        <mxCell id="qGBWfhwedNhxClX9icXL-2" value="Cadastra" style="shape=rhombus;perimeter=rhombusPerimeter;whiteSpace=wrap;html=1;align=center;" vertex="1" parent="1">
          <mxGeometry x="50" y="-180" width="120" height="60" as="geometry" />
        </mxCell>
        <mxCell id="qGBWfhwedNhxClX9icXL-8" value="" style="rounded=0;orthogonalLoop=1;jettySize=auto;html=1;endArrow=none;endFill=0;" edge="1" parent="1" source="qGBWfhwedNhxClX9icXL-3" target="qGBWfhwedNhxClX9icXL-7">
          <mxGeometry relative="1" as="geometry" />
        </mxCell>
        <mxCell id="qGBWfhwedNhxClX9icXL-10" value="" style="rounded=0;orthogonalLoop=1;jettySize=auto;html=1;endArrow=none;endFill=0;exitX=0;exitY=0.5;exitDx=0;exitDy=0;" edge="1" parent="1" source="qGBWfhwedNhxClX9icXL-3" target="qGBWfhwedNhxClX9icXL-9">
          <mxGeometry relative="1" as="geometry">
            <mxPoint x="20" y="-400" as="sourcePoint" />
          </mxGeometry>
        </mxCell>
        <mxCell id="qGBWfhwedNhxClX9icXL-12" value="" style="rounded=0;orthogonalLoop=1;jettySize=auto;html=1;endArrow=none;endFill=0;" edge="1" parent="1" source="qGBWfhwedNhxClX9icXL-3" target="qGBWfhwedNhxClX9icXL-11">
          <mxGeometry relative="1" as="geometry" />
        </mxCell>
        <mxCell id="qGBWfhwedNhxClX9icXL-13" value="" style="rounded=0;orthogonalLoop=1;jettySize=auto;html=1;endArrow=none;endFill=0;entryX=1;entryY=0.5;entryDx=0;entryDy=0;exitX=0;exitY=0.75;exitDx=0;exitDy=0;" edge="1" parent="1" source="qGBWfhwedNhxClX9icXL-3" target="qGBWfhwedNhxClX9icXL-14">
          <mxGeometry relative="1" as="geometry">
            <mxPoint x="50" y="-370" as="sourcePoint" />
          </mxGeometry>
        </mxCell>
        <mxCell id="qGBWfhwedNhxClX9icXL-16" style="rounded=0;orthogonalLoop=1;jettySize=auto;html=1;entryX=1;entryY=0;entryDx=0;entryDy=0;endArrow=none;endFill=0;" edge="1" parent="1" source="qGBWfhwedNhxClX9icXL-3" target="qGBWfhwedNhxClX9icXL-15">
          <mxGeometry relative="1" as="geometry" />
        </mxCell>
        <mxCell id="qGBWfhwedNhxClX9icXL-18" value="" style="rounded=0;orthogonalLoop=1;jettySize=auto;html=1;endArrow=none;endFill=0;exitX=0;exitY=1;exitDx=0;exitDy=0;" edge="1" parent="1" source="qGBWfhwedNhxClX9icXL-3" target="qGBWfhwedNhxClX9icXL-17">
          <mxGeometry relative="1" as="geometry">
            <mxPoint x="20" y="-400" as="sourcePoint" />
          </mxGeometry>
        </mxCell>
        <mxCell id="qGBWfhwedNhxClX9icXL-21" value="" style="rounded=0;orthogonalLoop=1;jettySize=auto;html=1;endArrow=none;endFill=0;" edge="1" parent="1" source="qGBWfhwedNhxClX9icXL-3" target="qGBWfhwedNhxClX9icXL-20">
          <mxGeometry relative="1" as="geometry" />
        </mxCell>
        <mxCell id="qGBWfhwedNhxClX9icXL-23" value="" style="edgeStyle=orthogonalEdgeStyle;rounded=0;orthogonalLoop=1;jettySize=auto;html=1;endArrow=none;endFill=0;entryX=0;entryY=0.5;entryDx=0;entryDy=0;" edge="1" parent="1" source="qGBWfhwedNhxClX9icXL-3" target="qGBWfhwedNhxClX9icXL-24">
          <mxGeometry relative="1" as="geometry">
            <mxPoint x="220" y="-410" as="targetPoint" />
          </mxGeometry>
        </mxCell>
        <mxCell id="qGBWfhwedNhxClX9icXL-31" value="" style="edgeStyle=orthogonalEdgeStyle;rounded=0;orthogonalLoop=1;jettySize=auto;html=1;endArrow=none;endFill=0;entryX=0.5;entryY=1;entryDx=0;entryDy=0;" edge="1" parent="1" source="qGBWfhwedNhxClX9icXL-3" target="qGBWfhwedNhxClX9icXL-32">
          <mxGeometry relative="1" as="geometry">
            <mxPoint x="95" y="-490" as="targetPoint" />
            <Array as="points">
              <mxPoint x="80" y="-470" />
              <mxPoint x="80" y="-470" />
            </Array>
          </mxGeometry>
        </mxCell>
        <mxCell id="qGBWfhwedNhxClX9icXL-36" value="" style="rounded=0;orthogonalLoop=1;jettySize=auto;html=1;endArrow=none;endFill=0;exitX=0;exitY=0.25;exitDx=0;exitDy=0;" edge="1" parent="1" source="qGBWfhwedNhxClX9icXL-3" target="qGBWfhwedNhxClX9icXL-35">
          <mxGeometry relative="1" as="geometry" />
        </mxCell>
        <mxCell id="qGBWfhwedNhxClX9icXL-3" value="TREINO" style="rounded=1;arcSize=10;whiteSpace=wrap;html=1;align=center;" vertex="1" parent="1">
          <mxGeometry x="30" y="-420" width="100" height="40" as="geometry" />
        </mxCell>
        <mxCell id="qGBWfhwedNhxClX9icXL-7" value="pk_id_treino" style="ellipse;whiteSpace=wrap;html=1;rounded=1;arcSize=10;" vertex="1" parent="1">
          <mxGeometry x="-240" y="-560" width="110" height="50" as="geometry" />
        </mxCell>
        <mxCell id="qGBWfhwedNhxClX9icXL-9" value="fk_id_professor" style="ellipse;whiteSpace=wrap;html=1;rounded=1;arcSize=10;" vertex="1" parent="1">
          <mxGeometry x="-360" y="-460" width="110" height="50" as="geometry" />
        </mxCell>
        <mxCell id="qGBWfhwedNhxClX9icXL-11" value="dt_prescricao" style="ellipse;whiteSpace=wrap;html=1;rounded=1;arcSize=10;" vertex="1" parent="1">
          <mxGeometry x="-360" y="-400" width="110" height="50" as="geometry" />
        </mxCell>
        <mxCell id="qGBWfhwedNhxClX9icXL-14" value="dt_avaliacao_fisica" style="ellipse;whiteSpace=wrap;html=1;" vertex="1" parent="1">
          <mxGeometry x="-390" y="-340" width="110" height="60" as="geometry" />
        </mxCell>
        <mxCell id="qGBWfhwedNhxClX9icXL-15" value="ds_avaliacao_fisica" style="ellipse;whiteSpace=wrap;html=1;align=center;" vertex="1" parent="1">
          <mxGeometry x="-360" y="-220" width="120" height="50" as="geometry" />
        </mxCell>
        <mxCell id="qGBWfhwedNhxClX9icXL-17" value="fk_id_equipamento" style="ellipse;whiteSpace=wrap;html=1;rounded=1;arcSize=10;" vertex="1" parent="1">
          <mxGeometry x="-380" y="-280" width="120" height="50" as="geometry" />
        </mxCell>
        <mxCell id="qGBWfhwedNhxClX9icXL-20" value="fk_id_exercicio" style="ellipse;whiteSpace=wrap;html=1;rounded=1;arcSize=10;" vertex="1" parent="1">
          <mxGeometry x="-270" y="-190" width="120" height="60" as="geometry" />
        </mxCell>
        <mxCell id="qGBWfhwedNhxClX9icXL-24" value="Possui" style="shape=rhombus;perimeter=rhombusPerimeter;whiteSpace=wrap;html=1;align=center;" vertex="1" parent="1">
          <mxGeometry x="210" y="-430" width="120" height="60" as="geometry" />
        </mxCell>
        <mxCell id="qGBWfhwedNhxClX9icXL-32" value="Executa" style="shape=rhombus;perimeter=rhombusPerimeter;whiteSpace=wrap;html=1;align=center;" vertex="1" parent="1">
          <mxGeometry x="20" y="-630" width="120" height="60" as="geometry" />
        </mxCell>
        <mxCell id="qGBWfhwedNhxClX9icXL-34" value="" style="edgeStyle=orthogonalEdgeStyle;rounded=0;orthogonalLoop=1;jettySize=auto;html=1;endArrow=none;endFill=0;" edge="1" parent="1" source="qGBWfhwedNhxClX9icXL-33" target="qGBWfhwedNhxClX9icXL-32">
          <mxGeometry relative="1" as="geometry" />
        </mxCell>
        <mxCell id="qGBWfhwedNhxClX9icXL-33" value="ALUNO" style="rounded=1;arcSize=10;whiteSpace=wrap;html=1;align=center;" vertex="1" parent="1">
          <mxGeometry x="30" y="-790" width="100" height="40" as="geometry" />
        </mxCell>
        <mxCell id="qGBWfhwedNhxClX9icXL-35" value="fk_id_aluno" style="ellipse;whiteSpace=wrap;html=1;rounded=1;arcSize=10;" vertex="1" parent="1">
          <mxGeometry x="-330" y="-520" width="110" height="50" as="geometry" />
        </mxCell>
        <mxCell id="qGBWfhwedNhxClX9icXL-99" style="rounded=0;orthogonalLoop=1;jettySize=auto;html=1;entryX=1;entryY=0.5;entryDx=0;entryDy=0;endArrow=none;endFill=0;exitX=0;exitY=0.5;exitDx=0;exitDy=0;" edge="1" parent="1" target="qGBWfhwedNhxClX9icXL-109" source="qGBWfhwedNhxClX9icXL-103">
          <mxGeometry relative="1" as="geometry">
            <mxPoint x="1130" y="-450" as="sourcePoint" />
            <Array as="points" />
          </mxGeometry>
        </mxCell>
        <mxCell id="qGBWfhwedNhxClX9icXL-103" value="data de manutenÃ§Ã£o" style="ellipse;shape=doubleEllipse;margin=3;whiteSpace=wrap;html=1;align=center;" vertex="1" parent="1">
          <mxGeometry x="720" y="-420" width="109" height="40" as="geometry" />
        </mxCell>
        <mxCell id="qGBWfhwedNhxClX9icXL-104" style="edgeStyle=none;rounded=0;orthogonalLoop=1;jettySize=auto;html=1;entryX=0;entryY=0;entryDx=0;entryDy=0;endArrow=none;endFill=0;" edge="1" parent="1" target="qGBWfhwedNhxClX9icXL-109">
          <mxGeometry relative="1" as="geometry">
            <mxPoint x="697" y="-500" as="sourcePoint" />
          </mxGeometry>
        </mxCell>
        <mxCell id="qGBWfhwedNhxClX9icXL-105" value="aquisiÃ§Ã£o" style="ellipse;whiteSpace=wrap;html=1;align=center;" vertex="1" parent="1">
          <mxGeometry x="690" y="-530" width="100" height="40" as="geometry" />
        </mxCell>
        <mxCell id="qGBWfhwedNhxClX9icXL-106" style="edgeStyle=none;rounded=0;orthogonalLoop=1;jettySize=auto;html=1;exitX=0.01;exitY=0.75;exitDx=0;exitDy=0;entryX=0.5;entryY=0;entryDx=0;entryDy=0;endArrow=none;endFill=0;exitPerimeter=0;" edge="1" parent="1" source="qGBWfhwedNhxClX9icXL-107" target="qGBWfhwedNhxClX9icXL-109">
          <mxGeometry relative="1" as="geometry" />
        </mxCell>
        <mxCell id="qGBWfhwedNhxClX9icXL-107" value="nÂº de sÃ©rie" style="ellipse;whiteSpace=wrap;html=1;align=center;" vertex="1" parent="1">
          <mxGeometry x="770" y="-500" width="100" height="40" as="geometry" />
        </mxCell>
        <mxCell id="qGBWfhwedNhxClX9icXL-121" style="edgeStyle=orthogonalEdgeStyle;rounded=0;orthogonalLoop=1;jettySize=auto;html=1;entryX=1;entryY=0.5;entryDx=0;entryDy=0;endArrow=none;endFill=0;startArrow=none;" edge="1" parent="1" source="qGBWfhwedNhxClX9icXL-109" target="qGBWfhwedNhxClX9icXL-24">
          <mxGeometry relative="1" as="geometry">
            <mxPoint x="470" y="-400" as="sourcePoint" />
            <Array as="points">
              <mxPoint x="470" y="-400" />
              <mxPoint x="470" y="-400" />
            </Array>
          </mxGeometry>
        </mxCell>
        <mxCell id="qGBWfhwedNhxClX9icXL-124" value="" style="edgeStyle=orthogonalEdgeStyle;rounded=0;orthogonalLoop=1;jettySize=auto;html=1;endArrow=none;endFill=0;exitX=0.682;exitY=0.99;exitDx=0;exitDy=0;exitPerimeter=0;entryX=0;entryY=0;entryDx=0;entryDy=0;" edge="1" parent="1" source="qGBWfhwedNhxClX9icXL-109" target="qGBWfhwedNhxClX9icXL-123">
          <mxGeometry relative="1" as="geometry">
            <Array as="points">
              <mxPoint x="480" y="-380" />
              <mxPoint x="480" y="-320" />
              <mxPoint x="478" y="-320" />
              <mxPoint x="478" y="-321" />
            </Array>
          </mxGeometry>
        </mxCell>
        <mxCell id="qGBWfhwedNhxClX9icXL-110" style="edgeStyle=none;rounded=0;orthogonalLoop=1;jettySize=auto;html=1;exitX=0;exitY=0.5;exitDx=0;exitDy=0;entryX=1;entryY=0;entryDx=0;entryDy=0;endArrow=none;endFill=0;" edge="1" parent="1" source="qGBWfhwedNhxClX9icXL-111" target="qGBWfhwedNhxClX9icXL-109">
          <mxGeometry relative="1" as="geometry" />
        </mxCell>
        <mxCell id="qGBWfhwedNhxClX9icXL-111" value="nome" style="ellipse;whiteSpace=wrap;html=1;align=center;" vertex="1" parent="1">
          <mxGeometry x="790" y="-460" width="100" height="40" as="geometry" />
        </mxCell>
        <mxCell id="qGBWfhwedNhxClX9icXL-112" style="edgeStyle=none;rounded=0;orthogonalLoop=1;jettySize=auto;html=1;exitX=0;exitY=0.5;exitDx=0;exitDy=0;endArrow=none;endFill=0;entryX=1;entryY=0.75;entryDx=0;entryDy=0;" edge="1" parent="1" source="qGBWfhwedNhxClX9icXL-113" target="qGBWfhwedNhxClX9icXL-109">
          <mxGeometry relative="1" as="geometry" />
        </mxCell>
        <mxCell id="qGBWfhwedNhxClX9icXL-118" value="detalhes de manutenÃ§Ã£o" style="ellipse;shape=doubleEllipse;margin=3;whiteSpace=wrap;html=1;align=center;" vertex="1" parent="1">
          <mxGeometry x="580" y="-360" width="102" height="40" as="geometry" />
        </mxCell>
        <mxCell id="qGBWfhwedNhxClX9icXL-113" value="exercÃ­cios" style="ellipse;shape=doubleEllipse;margin=3;whiteSpace=wrap;html=1;align=center;" vertex="1" parent="1">
          <mxGeometry x="630" y="-395" width="100" height="40" as="geometry" />
        </mxCell>
        <mxCell id="qGBWfhwedNhxClX9icXL-122" value="" style="edgeStyle=none;rounded=0;orthogonalLoop=1;jettySize=auto;html=1;exitX=0;exitY=0.5;exitDx=0;exitDy=0;endArrow=none;endFill=0;entryX=1;entryY=1;entryDx=0;entryDy=0;" edge="1" parent="1" source="qGBWfhwedNhxClX9icXL-118" target="qGBWfhwedNhxClX9icXL-109">
          <mxGeometry relative="1" as="geometry">
            <mxPoint x="1277.0624458405136" y="-394.14213562373084" as="sourcePoint" />
            <mxPoint x="1020" y="-450" as="targetPoint" />
          </mxGeometry>
        </mxCell>
        <mxCell id="qGBWfhwedNhxClX9icXL-123" value="&lt;u&gt;id_equipamento&lt;/u&gt;" style="ellipse;whiteSpace=wrap;html=1;rounded=1;arcSize=10;" vertex="1" parent="1">
          <mxGeometry x="470" y="-340" width="120" height="60" as="geometry" />
        </mxCell>
        <mxCell id="qGBWfhwedNhxClX9icXL-109" value="EQUIPAMENTO" style="rounded=1;arcSize=10;whiteSpace=wrap;html=1;align=center;" vertex="1" parent="1">
          <mxGeometry x="414" y="-420" width="100" height="40" as="geometry" />
        </mxCell>
        <mxCell id="qGBWfhwedNhxClX9icXL-127" value="0,n" style="text;html=1;align=center;verticalAlign=middle;resizable=0;points=[];autosize=1;strokeColor=none;fillColor=none;" vertex="1" parent="1">
          <mxGeometry x="380" y="-420" width="30" height="20" as="geometry" />
        </mxCell>
        <mxCell id="qGBWfhwedNhxClX9icXL-128" value="0,n" style="text;html=1;align=center;verticalAlign=middle;resizable=0;points=[];autosize=1;strokeColor=none;fillColor=none;" vertex="1" parent="1">
          <mxGeometry x="130" y="-420" width="30" height="20" as="geometry" />
        </mxCell>
        <mxCell id="qGBWfhwedNhxClX9icXL-129" value="0,1" style="text;html=1;align=center;verticalAlign=middle;resizable=0;points=[];autosize=1;strokeColor=none;fillColor=none;" vertex="1" parent="1">
          <mxGeometry x="75" y="-450" width="30" height="20" as="geometry" />
        </mxCell>
        <mxCell id="qGBWfhwedNhxClX9icXL-130" value="1,1" style="text;html=1;align=center;verticalAlign=middle;resizable=0;points=[];autosize=1;strokeColor=none;fillColor=none;" vertex="1" parent="1">
          <mxGeometry x="75" y="-740" width="30" height="20" as="geometry" />
        </mxCell>
        <mxCell id="qGBWfhwedNhxClX9icXL-131" value="1,1" style="text;html=1;align=center;verticalAlign=middle;resizable=0;points=[];autosize=1;strokeColor=none;fillColor=none;" vertex="1" parent="1">
          <mxGeometry x="75" y="-370" width="30" height="20" as="geometry" />
        </mxCell>
        <mxCell id="qGBWfhwedNhxClX9icXL-132" value="0,n" style="text;html=1;align=center;verticalAlign=middle;resizable=0;points=[];autosize=1;strokeColor=none;fillColor=none;" vertex="1" parent="1">
          <mxGeometry x="105" y="20" width="30" height="20" as="geometry" />
        </mxCell>
        <mxCell id="qGBWfhwedNhxClX9icXL-141" value="" style="edgeStyle=none;orthogonalLoop=1;jettySize=auto;html=1;endArrow=none;endFill=0;entryX=1;entryY=0.5;entryDx=0;entryDy=0;" edge="1" parent="1" source="qGBWfhwedNhxClX9icXL-134" target="qGBWfhwedNhxClX9icXL-135">
          <mxGeometry relative="1" as="geometry" />
        </mxCell>
        <mxCell id="qGBWfhwedNhxClX9icXL-134" value="data" style="ellipse;whiteSpace=wrap;html=1;align=center;" vertex="1" parent="1">
          <mxGeometry x="335" y="-624" width="90" height="40" as="geometry" />
        </mxCell>
        <mxCell id="qGBWfhwedNhxClX9icXL-139" style="edgeStyle=none;orthogonalLoop=1;jettySize=auto;html=1;endArrow=none;endFill=0;" edge="1" parent="1" source="qGBWfhwedNhxClX9icXL-135" target="qGBWfhwedNhxClX9icXL-32">
          <mxGeometry relative="1" as="geometry" />
        </mxCell>
        <mxCell id="qGBWfhwedNhxClX9icXL-135" value="PresenÃ§a" style="ellipse;whiteSpace=wrap;html=1;align=center;" vertex="1" parent="1">
          <mxGeometry x="190" y="-624" width="100" height="40" as="geometry" />
        </mxCell>
        <mxCell id="qGBWfhwedNhxClX9icXL-142" value="" style="edgeStyle=none;orthogonalLoop=1;jettySize=auto;html=1;endArrow=none;endFill=0;" edge="1" parent="1" source="qGBWfhwedNhxClX9icXL-136" target="qGBWfhwedNhxClX9icXL-135">
          <mxGeometry relative="1" as="geometry" />
        </mxCell>
        <mxCell id="qGBWfhwedNhxClX9icXL-136" value="hora" style="ellipse;whiteSpace=wrap;html=1;align=center;direction=south;" vertex="1" parent="1">
          <mxGeometry x="330" y="-580" width="90" height="40" as="geometry" />
        </mxCell>
        <mxCell id="qGBWfhwedNhxClX9icXL-144" style="edgeStyle=none;orthogonalLoop=1;jettySize=auto;html=1;endArrow=none;endFill=0;" edge="1" parent="1" source="qGBWfhwedNhxClX9icXL-143" target="qGBWfhwedNhxClX9icXL-135">
          <mxGeometry relative="1" as="geometry" />
        </mxCell>
        <mxCell id="qGBWfhwedNhxClX9icXL-143" value="turno" style="ellipse;whiteSpace=wrap;html=1;align=center;dashed=1;" vertex="1" parent="1">
          <mxGeometry x="325" y="-670" width="100" height="40" as="geometry" />
        </mxCell>
      </root>
    </mxGraphModel>
  </diagram>
</mxfile>
